<?xml-stylesheet type="text/css" href="makeup.min.css" ?><svg xmlns="http://www.w3.org/2000/svg" xmlns:xlink="http://www.w3.org/1999/xlink" viewBox="0 0 200 80"><title>Device icon: keyboard</title><defs><g id="shapes"><path id="shape-key" d="M0 0h10v10H0z"/><path id="shape-key-x-tiny" d="M0 0h6.25v5H0z"/><path id="shape-key-tiny" d="M0 0h10v5H0z"/><path id="shape-key-small" d="M0 0h7.5v10H0z"/><path id="shape-key-large" d="M0 0h13.75v10H0z"/><path id="shape-key-x-large" d="M0 0h20v10H0z"/><path id="shape-key-xx-large" d="M0 0h26.25v10H0z"/><path id="shape-key-esc" d="M0 0h12.5v5H0z"/><path id="shape-key-enter" d="M0 0h13.75v22.5h-10V10H0z"/><path id="shape-key-space" d="M0 0h75v10H0z"/></g></defs><rect width="100%" height="100%" id="board"/><g id="skb-layout"><g id="skb-wrapper-fn"><g id="skb-fx"><g id="Escape" transform="translate(5.625 5)"><use xlink:href="#shape-key-esc"/><text x="6.25" y="2.5"><tspan>esc</tspan></text></g><g id="F1" transform="translate(5.625 5) translate(15)"><use xlink:href="#shape-key-tiny"/><text x="5" y="2.5"><tspan>f1</tspan></text></g><g id="F2" transform="translate(5.625 5) translate(27.5)"><use xlink:href="#shape-key-tiny"/><text x="5" y="2.5"><tspan>f2</tspan></text></g><g id="F3" transform="translate(5.625 5) translate(40)"><use xlink:href="#shape-key-tiny"/><text x="5" y="2.5"><tspan>f3</tspan></text></g><g id="F4" transform="translate(5.625 5) translate(52.5)"><use xlink:href="#shape-key-tiny"/><text x="5" y="2.5"><tspan>f4</tspan></text></g><g id="F5" transform="translate(5.625 5) translate(65)"><use xlink:href="#shape-key-tiny"/><text x="5" y="2.5"><tspan>f5</tspan></text></g><g id="F6" transform="translate(5.625 5) translate(77.5)"><use xlink:href="#shape-key-tiny"/><text x="5" y="2.5"><tspan>f6</tspan></text></g><g id="F7" transform="translate(5.625 5) translate(90)"><use xlink:href="#shape-key-tiny"/><text x="5" y="2.5"><tspan>f7</tspan></text></g><g id="F8" transform="translate(5.625 5) translate(102.5)"><use xlink:href="#shape-key-tiny"/><text x="5" y="2.5"><tspan>f8</tspan></text></g><g id="F9" transform="translate(5.625 5) translate(115)"><use xlink:href="#shape-key-tiny"/><text x="5" y="2.5"><tspan>f9</tspan></text></g><g id="F10" transform="translate(5.625 5) translate(127.5)"><use xlink:href="#shape-key-tiny"/><text x="5" y="2.5"><tspan>f10</tspan></text></g><g id="F11" transform="translate(5.625 5) translate(140)"><use xlink:href="#shape-key-tiny"/><text x="5" y="2.5"><tspan>f11</tspan></text></g><g id="F12" transform="translate(5.625 5) translate(152.5)"><use xlink:href="#shape-key-tiny"/><text x="5" y="2.5"><tspan>f12</tspan></text></g></g><g id="skb-sys"><g id="PrintScreen" transform="translate(5.625 5) translate(165)"><use xlink:href="#shape-key-x-tiny"/><text x="3.125" y="2.5"><tspan>sys</tspan></text></g><g id="ScrollLock" transform="translate(5.625 5) translate(173.75)"><use xlink:href="#shape-key-x-tiny"/><text x="3.125" y="2.5"><tspan>scroll</tspan></text></g><g id="Pause" transform="translate(5.625 5) translate(182.5)"><use xlink:href="#shape-key-x-tiny"/><text x="3.125" y="2.5"><tspan>Pause</tspan></text></g></g></g><g id="skb-wrapper-qwerty"><g id="skb-num"><g id="Backquote" transform="translate(5.625 5) translate(0 10)"><use xlink:href="#shape-key-small"/><text x="3.75" y="5"><tspan>~</tspan></text></g><g id="Digit0" transform="translate(15.625 15)"><use xlink:href="#shape-key"/><text x="5" y="5"><tspan>1</tspan></text></g><g id="Digit2" transform="translate(28.125 15)"><use xlink:href="#shape-key"/><text x="5" y="5"><tspan>2</tspan></text></g><g id="Digit3" transform="translate(40.625 15)"><use xlink:href="#shape-key"/><text x="5" y="5"><tspan>3</tspan></text></g><g id="Digit4" transform="translate(53.125 15)"><use xlink:href="#shape-key"/><text x="5" y="5"><tspan>4</tspan></text></g><g id="Digit5" transform="translate(65.625 15)"><use xlink:href="#shape-key"/><text x="5" y="5"><tspan>5</tspan></text></g><g id="Digit6" transform="translate(78.125 15)"><use xlink:href="#shape-key"/><text x="5" y="5"><tspan>6</tspan></text></g><g id="Digit7" transform="translate(90.625 15)"><use xlink:href="#shape-key"/><text x="5" y="5"><tspan>7</tspan></text></g><g id="Digit8" transform="translate(103.125 15)"><use xlink:href="#shape-key"/><text x="5" y="5"><tspan>8</tspan></text></g><g id="Digit9" transform="translate(115.625 15)"><use xlink:href="#shape-key"/><text x="5" y="5"><tspan>9</tspan></text></g><g id="Digit0" transform="translate(128.125 15)"><use xlink:href="#shape-key"/><text x="5" y="5"><tspan>0</tspan></text></g><g id="Minus" transform="translate(140.625 15)"><use xlink:href="#shape-key-small"/><text x="3.75" y="5"><tspan>-</tspan></text></g><g id="Equal" transform="translate(150.625 15)"><use xlink:href="#shape-key-small"/><text x="3.75" y="5"><tspan>+</tspan></text></g><g id="Backspace" transform="translate(160.625 15)"><use xlink:href="#shape-key-large"/><text x="6.875" y="5"><tspan>⇐</tspan></text></g></g><g id="skb-qwe"><g id="Tab" transform="translate(5.625 5) translate(0 22.5)"><use xlink:href="#shape-key-large"/><text x="6.875" y="5"><tspan>⇄</tspan><tspan>tab</tspan></text></g><g id="KeyQ" transform="translate(21.875 27.5)"><use xlink:href="#shape-key"/><text x="5" y="5"><tspan>q</tspan></text></g><g id="KeyW" transform="translate(34.375 27.5)"><use xlink:href="#shape-key"/><text x="5" y="5"><tspan>w</tspan></text></g><g id="KeyE" transform="translate(46.875 27.5)"><use xlink:href="#shape-key"/><text x="5" y="5"><tspan>e</tspan></text></g><g id="KeyR" transform="translate(59.375 27.5)"><use xlink:href="#shape-key"/><text x="5" y="5"><tspan>r</tspan></text></g><g id="KeyT" transform="translate(71.875 27.5)"><use xlink:href="#shape-key"/><text x="5" y="5"><tspan>t</tspan></text></g><g id="KeyY" transform="translate(84.375 27.5)"><use xlink:href="#shape-key"/><text x="5" y="5"><tspan>y</tspan></text></g><g id="KeyU" transform="translate(96.875 27.5)"><use xlink:href="#shape-key"/><text x="5" y="5"><tspan>u</tspan></text></g><g id="KeyI" transform="translate(109.375 27.5)"><use xlink:href="#shape-key"/><text x="5" y="5"><tspan>i</tspan></text></g><g id="KeyO" transform="translate(121.875 27.5)"><use xlink:href="#shape-key"/><text x="5" y="5"><tspan>o</tspan></text></g><g id="KeyP" transform="translate(134.375 27.5)"><use xlink:href="#shape-key"/><text x="5" y="5"><tspan>p</tspan></text></g><g id="BracketLeft" transform="translate(146.875 27.5)"><use xlink:href="#shape-key-small"/><text x="3.75" y="5"><tspan>[</tspan></text></g><g id="BracketRight" transform="translate(156.875 27.5)"><use xlink:href="#shape-key-small"/><text x="3.75" y="5"><tspan>]</tspan></text></g><g id="Backslash" transform="translate(166.875 27.5)"><use xlink:href="#shape-key-small"/><text x="3.75" y="5"><tspan>\</tspan></text></g></g><g id="skb-asd"><g id="CapsLock" transform="translate(5.625 5) translate(0 35)"><use xlink:href="#shape-key-x-large"/><text x="10" y="5"><tspan>Lock</tspan></text></g><g id="KeyA" transform="translate(28.125 40)"><use xlink:href="#shape-key"/><text x="5" y="5"><tspan>a</tspan></text></g><g id="KeyS" transform="translate(40.625 40)"><use xlink:href="#shape-key"/><text x="5" y="5"><tspan>s</tspan></text></g><g id="KeyD" transform="translate(53.125 40)"><use xlink:href="#shape-key"/><text x="5" y="5"><tspan>d</tspan></text></g><g id="KeyF" transform="translate(65.625 40)"><use xlink:href="#shape-key"/><text x="5" y="5"><tspan>f</tspan></text></g><g id="KeyG" transform="translate(78.125 40)"><use xlink:href="#shape-key"/><text x="5" y="5"><tspan>g</tspan></text></g><g id="KeyH" transform="translate(90.625 40)"><use xlink:href="#shape-key"/><text x="5" y="5"><tspan>h</tspan></text></g><g id="KeyJ" transform="translate(103.125 40)"><use xlink:href="#shape-key"/><text x="5" y="5"><tspan>j</tspan></text></g><g id="KeyK" transform="translate(115.625 40)"><use xlink:href="#shape-key"/><text x="5" y="5"><tspan>k</tspan></text></g><g id="KeyL" transform="translate(128.125 40)"><use xlink:href="#shape-key"/><text x="5" y="5"><tspan>l</tspan></text></g><g id="Semicolon" transform="translate(140.625 40)"><use xlink:href="#shape-key-small"/><text x="3.75" y="5"><tspan>;</tspan></text></g><g id="Quote" transform="translate(150.625 40)"><use xlink:href="#shape-key-small"/><text x="3.75" y="5"><tspan>&apos;</tspan></text></g><g id="Enter" transform="translate(160.625 40)"><use xlink:href="#shape-key-enter"/><text x="7" y="5"><tspan>enter</tspan><tspan>↵</tspan></text></g></g><g id="skb-zxc"><g id="ShiftLeft" transform="translate(5.625 5) translate(0 47.5)"><use xlink:href="#shape-key-xx-large"/><text x="13.125" y="5"><tspan>↑ Shift</tspan></text></g><g id="ShiftRight" transform="translate(151.875 52.5)"><use xlink:href="#shape-key"/><text x="5" y="5"><tspan>↑</tspan></text></g><g id="KeyZ" transform="translate(34.375 52.5)"><use xlink:href="#shape-key"/><text x="5" y="5"><tspan>z</tspan></text></g><g id="KeyX" transform="translate(46.875 52.5)"><use xlink:href="#shape-key"/><text x="5" y="5"><tspan>x</tspan></text></g><g id="KeyC" transform="translate(59.375 52.5)"><use xlink:href="#shape-key"/><text x="5" y="5"><tspan>c</tspan></text></g><g id="KeyV" transform="translate(71.875 52.5)"><use xlink:href="#shape-key"/><text x="5" y="5"><tspan>v</tspan></text></g><g id="KeyB" transform="translate(84.375 52.5)"><use xlink:href="#shape-key"/><text x="5" y="5"><tspan>b</tspan></text></g><g id="KeyN" transform="translate(96.875 52.5)"><use xlink:href="#shape-key"/><text x="5" y="5"><tspan>n</tspan></text></g><g id="KeymM" transform="translate(109.375 52.5)"><use xlink:href="#shape-key"/><text x="5" y="5"><tspan>m</tspan></text></g><g id="Comma" transform="translate(121.875 52.5)"><use xlink:href="#shape-key-small"/><text x="3.75" y="5"><tspan>,</tspan></text></g><g id="Period" transform="translate(131.875 52.5)"><use xlink:href="#shape-key-small"/><text x="3.75" y="5"><tspan>.</tspan></text></g><g id="Slash" transform="translate(141.875 52.5)"><use xlink:href="#shape-key-small"/><text x="3.75" y="5"><tspan>/</tspan></text></g></g><g id="skb-alt"><g id="ControlLeft" transform="translate(5.625 5) translate(0 60)"><use xlink:href="#shape-key"/><text x="5" y="5"><tspan>Ctrl</tspan></text></g><g id="OSLeft" transform="translate(18.125 65)"><use xlink:href="#shape-key-small"/><text x="3.75" y="5"><tspan>♣</tspan></text></g><g id="AltLeft" transform="translate(28.125 65)"><use xlink:href="#shape-key"/><use xlink:href="#shape-key"/><text x="5" y="5"><tspan>alt</tspan></text></g><g id="Space" transform="translate(40.625 65)"><use xlink:href="#shape-key-space"/><text x="37.5" y="5"/></g><g id="AltRight" transform="translate(118.125 65)"><use xlink:href="#shape-key-large"/><text x="6.875" y="5"><tspan>alt gr</tspan></text></g><g id="OSRight" transform="translate(134.375 65)"><use xlink:href="#shape-key-small"/><text x="3.75" y="5"><tspan>♣</tspan></text></g><g id="ContextMenu" transform="translate(144.375 65)"><use xlink:href="#shape-key-small"/><text x="3.75" y="5"><tspan>≡</tspan></text></g><g id="ControlRight" transform="translate(154.375 65)"><use xlink:href="#shape-key"/><text x="5" y="5"><tspan>Ctrl</tspan></text></g></g></g><g id="skb-wrapper-mov"><g id="kb-page"><g id="Delete" transform="translate(5.625 5) translate(171.25 10)"><use xlink:href="#shape-key-small"/><text x="3.75" y="5"><tspan>del</tspan></text></g><g id="Insert" transform="translate(186.875 15)"><use xlink:href="#shape-key-small"/><text x="3.75" y="5"><tspan>ins</tspan></text></g><g id="Home" transform="translate(176.875 27.5)"><use xlink:href="#shape-key-small"/><text x="3.75" y="5"><tspan>⇤</tspan></text></g><g id="End" transform="translate(186.875 27.5)"><use xlink:href="#shape-key-small"/><text x="3.75" y="5"><tspan>⇥</tspan></text></g><g id="PageUp" transform="translate(176.875 40)"><use xlink:href="#shape-key-small"/><text x="3.75" y="5"><tspan>⇞</tspan></text></g><g id="PageDown" transform="translate(186.875 40)"><use xlink:href="#shape-key-small"/><text x="3.75" y="5"><tspan>⇟</tspan></text></g><g id="Fn" transform="translate(186.875 52.5)"><use xlink:href="#shape-key-small"/><text x="3.75" y="5"><tspan>fn</tspan></text></g></g><g id="kb-mov"><g id="ArrowUp" transform="translate(176.875 52.5)"><use xlink:href="#shape-key-small"/><text x="3.75" y="5"><tspan>⬆</tspan></text></g><g id="ArrowLeft" transform="translate(166.875 65)"><use xlink:href="#shape-key-small"/><text x="3.75" y="5"><tspan>⬅</tspan></text></g><g id="ArrowDown" transform="translate(176.875 65)"><use xlink:href="#shape-key-small"/><text x="3.75" y="5"><tspan>⬇</tspan></text></g><g id="ArrowRight" transform="translate(186.875 65)"><use xlink:href="#shape-key-small"/><text x="3.75" y="5"><tspan>➡</tspan></text></g></g></g></g><script type="text/ecmascript" xlink:href="./keyboard.js"/></svg>