<?xml-stylesheet type="text/css" href="makeup.min.css" ?><svg xmlns="http://www.w3.org/2000/svg" xmlns:xlink="http://www.w3.org/1999/xlink" viewBox="0 0 200 80"><title>Device icon: keyboard</title><defs><g id="shapes"><path id="shape-key" d="M0 0h10v10H0z"/><path id="shape-key-x-tiny" d="M0 0h6.25v5H0z"/><path id="shape-key-tiny" d="M0 0h10v5H0z"/><path id="shape-key-small" d="M0 0h7.5v10H0z"/><path id="shape-key-large" d="M0 0h13.75v10H0z"/><path id="shape-key-x-large" d="M0 0h20v10H0z"/><path id="shape-key-xx-large" d="M0 0h26.25v10H0z"/><path id="shape-key-esc" d="M0 0h12.5v5H0z"/><path id="shape-key-enter" d="M0 0h13.75v22.5h-10V10H0z"/><path id="shape-key-space" d="M0 0h75v10H0z"/></g></defs><rect width="100%" height="100%" id="board"/><g id="skb-layout"><g id="skb-wrapper-fn"><g id="skb-fx"><g id="k-esc" transform="translate(5.625 5)"><use xlink:href="#shape-key-esc"/><text x="6.25" y="2.5"><tspan>esc</tspan></text></g><g id="k-f1" transform="translate(5.625 5) translate(15)"><use xlink:href="#shape-key-tiny"/><text x="5" y="2.5"><tspan>f1</tspan></text></g><g id="k-f2" transform="translate(5.625 5) translate(27.5)"><use xlink:href="#shape-key-tiny"/><text x="5" y="2.5"><tspan>f2</tspan></text></g><g id="k-f3" transform="translate(5.625 5) translate(40)"><use xlink:href="#shape-key-tiny"/><text x="5" y="2.5"><tspan>f3</tspan></text></g><g id="k-f4" transform="translate(5.625 5) translate(52.5)"><use xlink:href="#shape-key-tiny"/><text x="5" y="2.5"><tspan>f4</tspan></text></g><g id="k-f5" transform="translate(5.625 5) translate(65)"><use xlink:href="#shape-key-tiny"/><text x="5" y="2.5"><tspan>f5</tspan></text></g><g id="k-f6" transform="translate(5.625 5) translate(77.5)"><use xlink:href="#shape-key-tiny"/><text x="5" y="2.5"><tspan>f6</tspan></text></g><g id="k-f7" transform="translate(5.625 5) translate(90)"><use xlink:href="#shape-key-tiny"/><text x="5" y="2.5"><tspan>f7</tspan></text></g><g id="k-f8" transform="translate(5.625 5) translate(102.5)"><use xlink:href="#shape-key-tiny"/><text x="5" y="2.5"><tspan>f8</tspan></text></g><g id="k-f9" transform="translate(5.625 5) translate(115)"><use xlink:href="#shape-key-tiny"/><text x="5" y="2.5"><tspan>f9</tspan></text></g><g id="k-f10" transform="translate(5.625 5) translate(127.5)"><use xlink:href="#shape-key-tiny"/><text x="5" y="2.5"><tspan>f10</tspan></text></g><g id="k-f11" transform="translate(5.625 5) translate(140)"><use xlink:href="#shape-key-tiny"/><text x="5" y="2.5"><tspan>f11</tspan></text></g><g id="k-f12" transform="translate(5.625 5) translate(152.5)"><use xlink:href="#shape-key-tiny"/><text x="5" y="2.5"><tspan>f12</tspan></text></g></g><g id="skb-sys"><g id="k-screenshot" transform="translate(5.625 5) translate(165)"><use xlink:href="#shape-key-x-tiny"/><text x="3.125" y="2.5"><tspan>sys</tspan></text></g><g id="k-scroll" transform="translate(5.625 5) translate(173.75)"><use xlink:href="#shape-key-x-tiny"/><text x="3.125" y="2.5"><tspan>scroll</tspan></text></g><g id="k-break" transform="translate(5.625 5) translate(182.5)"><use xlink:href="#shape-key-x-tiny"/><text x="3.125" y="2.5"><tspan>sleep</tspan></text></g></g></g><g id="skb-wrapper-qwerty"><g id="skb-num"><g id="k-tilde" transform="translate(5.625 5) translate(0 10)"><use xlink:href="#shape-key-small"/><text x="3.75" y="5"><tspan>~</tspan></text></g><g id="k-1" transform="translate(15.625 15)"><use xlink:href="#shape-key"/><text x="5" y="5"><tspan>1</tspan></text></g><g id="k-2" transform="translate(28.125 15)"><use xlink:href="#shape-key"/><text x="5" y="5"><tspan>2</tspan></text></g><g id="k-3" transform="translate(40.625 15)"><use xlink:href="#shape-key"/><text x="5" y="5"><tspan>3</tspan></text></g><g id="k-4" transform="translate(53.125 15)"><use xlink:href="#shape-key"/><text x="5" y="5"><tspan>4</tspan></text></g><g id="k-5" transform="translate(65.625 15)"><use xlink:href="#shape-key"/><text x="5" y="5"><tspan>5</tspan></text></g><g id="k-6" transform="translate(78.125 15)"><use xlink:href="#shape-key"/><text x="5" y="5"><tspan>6</tspan></text></g><g id="k-7" transform="translate(90.625 15)"><use xlink:href="#shape-key"/><text x="5" y="5"><tspan>7</tspan></text></g><g id="k-8" transform="translate(103.125 15)"><use xlink:href="#shape-key"/><text x="5" y="5"><tspan>8</tspan></text></g><g id="k-9" transform="translate(115.625 15)"><use xlink:href="#shape-key"/><text x="5" y="5"><tspan>9</tspan></text></g><g id="k-0" transform="translate(128.125 15)"><use xlink:href="#shape-key"/><text x="5" y="5"><tspan>0</tspan></text></g><g id="k-dash" transform="translate(140.625 15)"><use xlink:href="#shape-key-small"/><text x="3.75" y="5"><tspan>-</tspan></text></g><g id="k-equal" transform="translate(150.625 15)"><use xlink:href="#shape-key-small"/><text x="3.75" y="5"><tspan>+</tspan></text></g><g id="k-back" transform="translate(160.625 15)"><use xlink:href="#shape-key-large"/><text x="6.875" y="5"><tspan>⇐</tspan></text></g></g><g id="skb-qwe"><g id="k-tab" transform="translate(5.625 5) translate(0 22.5)"><use xlink:href="#shape-key-large"/><text x="6.875" y="5"><tspan>⇄</tspan><tspan>tab</tspan></text></g><g id="k-q" transform="translate(21.875 27.5)"><use xlink:href="#shape-key"/><text x="5" y="5"><tspan>q</tspan></text></g><g id="k-w" transform="translate(34.375 27.5)"><use xlink:href="#shape-key"/><text x="5" y="5"><tspan>w</tspan></text></g><g id="k-e" transform="translate(46.875 27.5)"><use xlink:href="#shape-key"/><text x="5" y="5"><tspan>e</tspan></text></g><g id="k-r" transform="translate(59.375 27.5)"><use xlink:href="#shape-key"/><text x="5" y="5"><tspan>r</tspan></text></g><g id="k-t" transform="translate(71.875 27.5)"><use xlink:href="#shape-key"/><text x="5" y="5"><tspan>t</tspan></text></g><g id="k-y" transform="translate(84.375 27.5)"><use xlink:href="#shape-key"/><text x="5" y="5"><tspan>y</tspan></text></g><g id="k-u" transform="translate(96.875 27.5)"><use xlink:href="#shape-key"/><text x="5" y="5"><tspan>u</tspan></text></g><g id="k-i" transform="translate(109.375 27.5)"><use xlink:href="#shape-key"/><text x="5" y="5"><tspan>i</tspan></text></g><g id="k-o" transform="translate(121.875 27.5)"><use xlink:href="#shape-key"/><text x="5" y="5"><tspan>o</tspan></text></g><g id="k-p" transform="translate(134.375 27.5)"><use xlink:href="#shape-key"/><text x="5" y="5"><tspan>p</tspan></text></g><g id="k-lbra" transform="translate(146.875 27.5)"><use xlink:href="#shape-key-small"/><text x="3.75" y="5"><tspan>[</tspan></text></g><g id="k-rbra" transform="translate(156.875 27.5)"><use xlink:href="#shape-key-small"/><text x="3.75" y="5"><tspan>]</tspan></text></g><g id="k-pipe" transform="translate(166.875 27.5)"><use xlink:href="#shape-key-small"/><text x="3.75" y="5"><tspan>\</tspan></text></g></g><g id="skb-asd"><g id="k-lock" transform="translate(5.625 5) translate(0 35)"><use xlink:href="#shape-key-x-large"/><text x="10" y="5"><tspan>Lock</tspan></text></g><g id="k-a" transform="translate(28.125 40)"><use xlink:href="#shape-key"/><text x="5" y="5"><tspan>a</tspan></text></g><g id="k-s" transform="translate(40.625 40)"><use xlink:href="#shape-key"/><text x="5" y="5"><tspan>s</tspan></text></g><g id="k-d" transform="translate(53.125 40)"><use xlink:href="#shape-key"/><text x="5" y="5"><tspan>d</tspan></text></g><g id="k-f" transform="translate(65.625 40)"><use xlink:href="#shape-key"/><text x="5" y="5"><tspan>f</tspan></text></g><g id="k-g" transform="translate(78.125 40)"><use xlink:href="#shape-key"/><text x="5" y="5"><tspan>g</tspan></text></g><g id="k-h" transform="translate(90.625 40)"><use xlink:href="#shape-key"/><text x="5" y="5"><tspan>h</tspan></text></g><g id="k-j" transform="translate(103.125 40)"><use xlink:href="#shape-key"/><text x="5" y="5"><tspan>j</tspan></text></g><g id="k-k" transform="translate(115.625 40)"><use xlink:href="#shape-key"/><text x="5" y="5"><tspan>k</tspan></text></g><g id="k-l" transform="translate(128.125 40)"><use xlink:href="#shape-key"/><text x="5" y="5"><tspan>l</tspan></text></g><g id="k-colons" transform="translate(140.625 40)"><use xlink:href="#shape-key-small"/><text x="3.75" y="5"><tspan>;</tspan></text></g><g id="k-quotes" transform="translate(150.625 40)"><use xlink:href="#shape-key-small"/><text x="3.75" y="5"><tspan>&apos;</tspan></text></g><g id="k-return" transform="translate(160.625 40)"><use xlink:href="#shape-key-enter"/><text x="7" y="5"><tspan>enter</tspan><tspan>↵</tspan></text></g></g><g id="skb-zxc"><g id="k-lshift" transform="translate(5.625 5) translate(0 47.5)"><use xlink:href="#shape-key-xx-large"/><text x="13.125" y="5"><tspan>↑ Shift</tspan></text></g><g id="k-rshift" transform="translate(151.875 52.5)"><use xlink:href="#shape-key"/><text x="5" y="5"><tspan>↑</tspan></text></g><g id="k-z" transform="translate(34.375 52.5)"><use xlink:href="#shape-key"/><text x="5" y="5"><tspan>z</tspan></text></g><g id="k-x" transform="translate(46.875 52.5)"><use xlink:href="#shape-key"/><text x="5" y="5"><tspan>x</tspan></text></g><g id="k-c" transform="translate(59.375 52.5)"><use xlink:href="#shape-key"/><text x="5" y="5"><tspan>c</tspan></text></g><g id="k-v" transform="translate(71.875 52.5)"><use xlink:href="#shape-key"/><text x="5" y="5"><tspan>v</tspan></text></g><g id="k-b" transform="translate(84.375 52.5)"><use xlink:href="#shape-key"/><text x="5" y="5"><tspan>b</tspan></text></g><g id="k-n" transform="translate(96.875 52.5)"><use xlink:href="#shape-key"/><text x="5" y="5"><tspan>n</tspan></text></g><g id="k-m" transform="translate(109.375 52.5)"><use xlink:href="#shape-key"/><text x="5" y="5"><tspan>m</tspan></text></g><g id="k-lt" transform="translate(121.875 52.5)"><use xlink:href="#shape-key-small"/><text x="3.75" y="5"><tspan>&lt;</tspan></text></g><g id="k-gt" transform="translate(131.875 52.5)"><use xlink:href="#shape-key-small"/><text x="3.75" y="5"><tspan>&gt;</tspan></text></g><g id="k-slash" transform="translate(141.875 52.5)"><use xlink:href="#shape-key-small"/><text x="3.75" y="5"><tspan>/</tspan></text></g></g><g id="skb-alt"><g id="k-lctrl" transform="translate(5.625 5) translate(0 60)"><use xlink:href="#shape-key"/><text x="5" y="5"><tspan>Ctrl</tspan></text></g><g id="k-lsuper" transform="translate(18.125 65)"><use xlink:href="#shape-key-small"/><text x="3.75" y="5"><tspan>♣</tspan></text></g><g id="k-alt" transform="translate(28.125 65)"><use xlink:href="#shape-key"/><use xlink:href="#shape-key"/><text x="5" y="5"><tspan>alt</tspan></text></g><g id="k-space" transform="translate(40.625 65)"><use xlink:href="#shape-key-space"/><text x="37.5" y="5"/></g><g id="k-altgr" transform="translate(118.125 65)"><use xlink:href="#shape-key-large"/><text x="6.875" y="5"><tspan>alt gr</tspan></text></g><g id="k-super" transform="translate(134.375 65)"><use xlink:href="#shape-key-small"/><text x="3.75" y="5"><tspan>♣</tspan></text></g><g id="k-meta" transform="translate(144.375 65)"><use xlink:href="#shape-key-small"/><text x="3.75" y="5"><tspan>≡</tspan></text></g><g id="k-rctrl" transform="translate(154.375 65)"><use xlink:href="#shape-key"/><text x="5" y="5"><tspan>Ctrl</tspan></text></g></g></g><g id="skb-wrapper-mov"><g id="kb-page"><g id="k-del" transform="translate(5.625 5) translate(171.25 10)"><use xlink:href="#shape-key-small"/><text x="3.75" y="5"><tspan>del</tspan></text></g><g id="k-insert" transform="translate(186.875 15)"><use xlink:href="#shape-key-small"/><text x="3.75" y="5"><tspan>ins</tspan></text></g><g id="k-home" transform="translate(176.875 27.5)"><use xlink:href="#shape-key-small"/><text x="3.75" y="5"><tspan>⇤</tspan></text></g><g id="k-end" transform="translate(186.875 27.5)"><use xlink:href="#shape-key-small"/><text x="3.75" y="5"><tspan>⇥</tspan></text></g><g id="k-page-up" transform="translate(176.875 40)"><use xlink:href="#shape-key-small"/><text x="3.75" y="5"><tspan>⇞</tspan></text></g><g id="k-page-down" transform="translate(186.875 40)"><use xlink:href="#shape-key-small"/><text x="3.75" y="5"><tspan>⇟</tspan></text></g><g id="k-fn" transform="translate(186.875 52.5)"><use xlink:href="#shape-key-small"/><text x="3.75" y="5"><tspan>fn</tspan></text></g></g><g id="kb-mov"><g id="k-up" transform="translate(176.875 52.5)"><use xlink:href="#shape-key-small"/><text x="3.75" y="5"><tspan>⬆</tspan></text></g><g id="k-left" transform="translate(166.875 65)"><use xlink:href="#shape-key-small"/><text x="3.75" y="5"><tspan>⬅</tspan></text></g><g id="k-down" transform="translate(176.875 65)"><use xlink:href="#shape-key-small"/><text x="3.75" y="5"><tspan>⬇</tspan></text></g><g id="k-right" transform="translate(186.875 65)"><use xlink:href="#shape-key-small"/><text x="3.75" y="5"><tspan>➡</tspan></text></g></g></g></g><script type="text/ecmascript" xlink:href="./keyboard.js"/></svg>